<svg xmlns="http://www.w3.org/2000/svg" width="20" height="20" viewBox="0 0 20 20" fill="none">
  <path d="M0.75 0.75L2.83 1.11L3.793 12.583C3.87 13.52 4.653 14.239 5.593 14.236H16.502C17.399 14.238 18.16 13.578 18.287 12.69L19.236 6.132C19.342 5.399 18.833 4.719 18.101 4.613C18.037 4.604 3.164 4.599 3.164 4.599" stroke="#1A162E" stroke-width="1.5" stroke-linecap="round" stroke-linejoin="round"/>
  <path d="M12.125 8.29492H14.898" stroke="#1A162E" stroke-width="1.5" stroke-linecap="round" stroke-linejoin="round"/>
  <path fill-rule="evenodd" clip-rule="evenodd" d="M5.15338 17.7031C5.45438 17.7031 5.69738 17.9471 5.69738 18.2471C5.69738 18.5481 5.45438 18.7921 5.15338 18.7921C4.85238 18.7921 4.60938 18.5481 4.60938 18.2471C4.60938 17.9471 4.85238 17.7031 5.15338 17.7031Z" fill="#1A162E" stroke="#1A162E" stroke-width="1.5" stroke-linecap="round" stroke-linejoin="round"/>
  <path fill-rule="evenodd" clip-rule="evenodd" d="M16.4346 17.7031C16.7356 17.7031 16.9796 17.9471 16.9796 18.2471C16.9796 18.5481 16.7356 18.7921 16.4346 18.7921C16.1336 18.7921 15.8906 18.5481 15.8906 18.2471C15.8906 17.9471 16.1336 17.7031 16.4346 17.7031Z" fill="#1A162E" stroke="#1A162E" stroke-width="1.5" stroke-linecap="round" stroke-linejoin="round"/>
</svg>